<mxfile host="app.diagrams.net" modified="2023-10-05T12:31:40.289Z" agent="Mozilla/5.0 (Windows NT 10.0; Win64; x64) AppleWebKit/537.36 (KHTML, like Gecko) Chrome/117.0.0.0 Safari/537.36" version="22.0.2" etag="41Usfg3RrUqhYilgCv_P" type="github">
  <diagram name="PÃ¡gina-1" id="OCWlO0vMXAK2h2BPAs1R">
    <mxGraphModel>
      <root>
        <mxCell id="0" />
        <mxCell id="1" parent="0" />
      </root>
    </mxGraphModel>
  </diagram>
</mxfile>
